<?xml version="1.0" encoding="utf-8"?>
<!-- Generator: Adobe Illustrator 19.2.0, SVG Export Plug-In . SVG Version: 6.00 Build 0)  -->
<svg version="1.1" id="Layer_1" xmlns="http://www.w3.org/2000/svg" xmlns:xlink="http://www.w3.org/1999/xlink" x="0px" y="0px"
	 viewBox="0 0 1814.9 1374.2" style="enable-background:new 0 0 1814.9 1374.2;" xml:space="preserve">
<style type="text/css">
	.st0{opacity:0.63;}
	.st1{opacity:0.73;}
	.st2{clip-path:url(#SVGID_2_);}
	.st3{fill:#1B1C1C;}
	.st4{fill:#FDD501;}
	.st5{font-family:'Montserrat-Black';}
	.st6{font-size:69.9978px;}
	.st7{letter-spacing:3;}
	.st8{fill:#FFFFFF;}
	.st9{font-size:93.3304px;}
	.st10{letter-spacing:5;}
	.st11{font-size:141.94px;}
	.st12{letter-spacing:7;}
</style>
<g class="st0">
	<g>
		<g class="st1">
			<defs>
				<path id="SVGID_1_" class="st1" d="M109.3,1374.2l1.7-61.5c0,0-5.4-7.9,0-11.2l2.9-37.8c0,0-12-6.6-0.4-14.1
					c11.6-7.5-8.7-16.6-8.7-16.6s-1.2,0.4,9.6-24.5c0,0-4.2,0-11.2,0s0-7.1,0-7.1s-14.9,2.9-14.9-2.9s2.1-10-2.9-12.5
					c-5-2.5-5.8-11.2,1.7-11.6c7.5-0.4,17.4-17,17.4-17s0.6-69,3.1-70.2c2.5-1.2-14.6-3.4-14.6-3.4s-6.8-9.4,5.2-12.2
					s-0.7-7.4-0.7-7.4s-16.5-6.6-12.1-11.9c4.5-5.4-3.5-5.8-3.5-5.8s-5.1-5.1,3.4-9.5c8.6-4.4-6-17-6-17s-9.9-12.7-19.5-27.9
					c-9.6-15.2-21.4-37.8-21.4-37.8s-9.6-10.7-9.9-21.7c-0.3-11-3.9-20.6-11.3-21.7c0,0-2.5-3.1,1.7-14.4c0,0-8.5-6.8-4.5-13.8
					c3.9-7.1-9.6-12.1-9.6-12.1s-6.2-5.9-4.5-39.5c0,0,0-24.5,9.3-26c9.3-1.4,7.3-21.4,7.3-21.4s-2.5-13.8,5.4-21.7
					c7.9-7.9,11.6-56.4,11.6-56.4s22.2-106.9,44.6-141.1c22.3-34.2,29.8-58.1,29.8-58.1s0.5-7.4,4.5-8.9c4-1.5,65-44.2,94.8-46.2
					c0,0,11.4-12.9,30.3-14.4c0,0,10.9-10.9,29.3-11.9c18.4-1,53.1-32.4,53.6-39.1c0.5-6.7-0.5-56.6-0.5-56.6s-4.6-8.4-4.6-9.6
					s-13.7,19.7-13.7,19.7l-7,5l-0.5-28.8l11-25l5.3-49.9c0,0,6.2-44.4,18.2-53.3c0,0,3.8-16.6,9.4-19c5.5-2.4,13-16.8,32.2-21.4
					c0,0,6.5-12.7,25.2-12.7c0,0,10.1-12.7,19.9-12.7s29.5-7.4,29.5-7.4s13.7-4.6,41,19.2c0,0,6.5,3.1,10.6,3.1
					c4.1,0,2.6,24.5,2.6,24.5s7.4,2.9,17.5,13.2s17.8,32.6,17.8,32.6s8.4,30.2-2.4,65.8c-10.8,35.5-35.3,108.7-55.4,112.8
					c0,0,13.9-22.6,4.8-25c-9.1-2.4-24.7,57.8-24.7,57.8l-7,22.3c0,0,9.1,1.7,13.4,8.4s12,11,12,11l66.2,31.4l7.9,12.5
					c0,0,10.3,10.6,10.3,13.2s7.7-1.7,13.9-1.4c6.2,0.2,33.4-21.4,40.6-21.4c7.2,0-14.9-17.8-14.9-17.8s-19.7-39.1-18.2-63.8
					c1.4-24.7-3.8-60.7-3.8-60.7s-5.3-9.4-2.4-11.3c2.9-1.9,0.7-46.8,9.4-60.7s14.6-22.1,14.6-22.1s10.8-19.9,25.9-22.3
					c0,0,15.8-19.2,41.3-17.8s60.2,12.5,60.2,12.5s52.6-34.8,62.9-34.8s19.2-6.7,19.2-23.9c0,0,45.1-5.6,54-12.3
					c0,0,14.5,4.5,16.2,8.9c1.7,4.5,42.9-16,42.9-16s8.1-9.6,22.8-7.7c14.7,1.9,58.3-24.3,58.3-24.3h13.5c0,0,42.5-32,41.7-40.5
					l-30.9-0.8l-44.8-23.9c0,0-2.7-7.7,8.5-6.6c11.2,1.2,35.5,13.5,35.5,13.5s18.1-3.5,22.4-1.2c0,0,17.4-10,22-10
					s1.2-14.3,1.2-14.3l-27.4-4.2c0,0-4.6-12-8.5-12c-3.9,0-1.5-14.7,15.4-8.5c17,6.2,35.1,1.2,35.1,1.2s35.9-9.3,42.1-1.5
					c0,0,24.3-15.8,39-10s94.6,111.9,94.6,111.9s10-3.9,17.8,5.8c0,0,21.6-1.2,41.3,43.2c0,0-9.3,1.5-6.9,3.9c2.3,2.3,15.4,0,15.4,0
					s14.7-8.5,26.2,3.1c0,0,12.7,1.5,13.5-1.5c0.8-3.1,18.1,12.4,18.1,12.4s17,5,17,12.7s5,17.8,12.4,14.3c7.3-3.5,4.6,8.9,4.6,8.9
					s11.6-1.5,11.6,3.5c0,5-7.3,33.6-7.3,33.6s12.7,50.9,5,70.2c0,0,12.7,8.5,10.4,23.2c-2.3,14.7-9.6,42.1-32.4,38.6l-2.7,47.1
					l44.4,44l30.9-23.5c0,0,6.9-3.5,9.6,0.4c2.7,3.9,56.4-22.8,44-54.8c0,0-4.2-2.7-4.6,3.1c-0.4,5.8-10.4-22.8-10.4-22.8
					s-8.5-4.2-9.3-3.1c-0.8,1.2,10.4-15.4,0.8-22.4c-9.6-6.9-21.6-38.2-21.6-38.2s2.7-22.4-5.8-22.4c-8.5,0-19.3-18.1-12.7-21.2
					s12.4-17.8,12.4-17.8s2.3-28.2,15.8-28.2c0,0,6.2-1.2,1.9-8.9c-4.2-7.7,28.6-35.9,30.5-50.6c1.9-14.7,39,5.8,52.9,6.6
					c13.9,0.8,56-16.2,61-5.4c0,0,35.1,24.7,36.7,40.9c0,0,10.4,2.3,15.8-6.9c0,0-1.9,7.7-13.5,11.2c0,0,27.4,50.6,27.4,58.3
					c0,0-5.4,5.4-5.4,7.7c0,2.3,1.9,17.8,1.9,17.8s10.8,16.2,16.2,21.6c5.4,5.4-13.1,17-13.1,17s3.1,16.2,0.8,19.7
					c-2.3,3.5-4.2,10.4-4.2,10.4s6.2,10.8-0.4,12.4s2.3,15.8,2.3,15.8s3.1,23.9-19.7,25.5c-22.8,1.5-31.6,17.4-31.6,17.4
					s-5.8,40.9-8.1,45.2c-2.3,4.2,46.3,25.5,46.3,25.5s22,13.9,26.2,44.8s15.1,49.8,15.1,49.8l-5,34.4c0,0-6.2,28.2,1.9,35.5
					c8.1,7.3-1.2,32-1.2,32l9.3,119.3c0,0,6.6,0.8,2.7,9.6c-3.9,8.9,2.7,6.2,2.7,6.2s5,5-0.8,10c-5.8,5,6.2,20.1,6.2,20.1
					s9.6,20.5,9.6,44c0,23.5,8.9,90.3,8.9,90.3l-3.1,3.5l11.2,58.3l9.6,65.2c0,0,18.1,62.5,24.3,70.2c0,0,1.2,6.9-4.6,15.4
					c-5.8,8.5-6.6,37.8-6.6,37.8l-28.9,14.7c0,0-13.5,2.7-25.5-3.5c-12-6.2-18.9,5.4-18.9,5.4s-5,54.8-23.5,71.8l-5,32L109.3,1374.2
					z"/>
			</defs>
			<clipPath id="SVGID_2_">
				<use xlink:href="#SVGID_1_"  style="overflow:visible;"/>
			</clipPath>
			<g id="QnwFfI_3_" class="st2">
				
					<image style="overflow:visible;" width="1012" height="675" id="QnwFfI_4_" xlink:href="C68208CCE4F0F54A.jpg"  transform="matrix(2.2528 0 0 2.2528 -217.025 -148.3771)">
				</image>
			</g>
		</g>
		<path class="st3" d="M822.4,306.1c0,0,14,18.5,14,25.6s21.8,32.2,21.6,39.9c-0.3,7.6,19.1-79.7,19.1-79.7s38.5-88.4,80-89.5
			c0,0,31.9-15.3,44.8-6c12.8,9.3,19.1-3,29.5,1.4c10.4,4.4,34.9,26.8,34.9,26.8s22.4,30,22.4,57.3c0,0,24.6,44.5,24,60.9
			c-0.5,16.4-5.5,20.5,15,36.8c20.5,16.4-17.7,42-17.7,42l7.1,13.9c0,0,16.9-1.1,16.9,4.1s16.9-5.5,16.9-5.5s7.1-1.1,7.4,4.4
			c0.3,5.5,10.6-15,10.6-15s5.7-13.9,11.5-14.2s19.7-12.3,19.7-15.8c0-3.5,5.2-42.6,11.7-44.2c0,0,6.3-42.9,9-56.2
			s-10.4-18.8,1.9-54c12.3-35.2-6.8-28.4-6.8-28.4s-15.3-61.1-15.3-67.1c0-6-4.6-10.6-4.6-10.6l-46.4-65.2c0,0-4.9-6.6-33.6-1.4
			c-28.7,5.2-18.6,17.2-18.6,17.2s-1.1,19.1-11.7,20.5c0,0-19.1,25.7-19.1,27.8s-7.6,1.4-7.6,1.4s-4.4,3.5-0.8,5.7
			c3.5,2.2,16.7-4.6,16.7-4.6l35.8-0.8c0,0,8.7,0.3,8.5,8.7c-0.3,8.5-23.7,5.2-23.7,5.2l-14.5,4.9c0,0-7.1,4.9-12.6,4.4
			c-5.5-0.5-42.3,24.8-38.5,31.9c0,0-3.5,4.9,7.9,7.4c11.5,2.5,38.2,10.9,39.3,18c0,0,7.4,11.7-3.3,11.7c-10.6,0-22.7-15-22.7-15
			s-12.6-18-35.8-11.5c0,0-20.2-9-28.7-7.9c-8.5,1.1-29.2,9.3-29.2,9.3l-12.3-4.9l-42,19.7l0.8,11.2c0,0-32,20.5-38.9,31.3
			c-6.9,10.8-11.8,3.6-11.8,3.6s-10.5,2.3-9.2,15.7s-1.3,17-9.8,17s-3.9,9.2-3.9,9.2S836.5,306.1,822.4,306.1z"/>
		<path class="st3" d="M986.8,1373l29.9-0.6l-2.6-125c0,0-5.5,7.2-5.5,15.5C1008.5,1271.2,986.8,1373,986.8,1373z"/>
		<polygon class="st3" points="1181.5,1312.1 1158.3,1373.5 1209.7,1373.5 		"/>
		<path class="st3" d="M125.8,837c0,0-7.2,2.2-5.4,7.6c1.8,5.4,7.2,2.2,5.8,7.6c-1.3,5.4,2.2,12.1,2.2,13.9s-4.5,4-4.5,4
			s-0.4,15.3,9.9,33.3c0,0-8.1,29.2,4.9,50.3c0,0,13.5-2.7,13.9-25.6c0.4-22.9,12.6-49,12.6-49s-4-28.3-1.8-29.2
			c2.2-0.9-15.3-26.5-13-42.3c2.2-15.7-6.7-27.9-6.7-27.9l-13,11.7c0,0-2.7,20.7-7.6,21.6s6.3,11.2,1.3,15.7
			C119.5,833.4,125.8,837,125.8,837z"/>
	</g>
</g>
<g>
	<text transform="matrix(1 0 0 1 645.2693 812.0524)" class="st4 st5 st6 st7">ANNOUNCING</text>
	<text transform="matrix(1 0 0 1 555.3044 981.9586)"><tspan x="0" y="0" class="st8 st5 st9 st10">OF MONSTERS  </tspan><tspan x="0" y="131.4" class="st8 st5 st11 st12">AND MEN</tspan></text>
</g>
</svg>
