<?xml version="1.0" encoding="utf-8"?>
<!-- Generator: Adobe Illustrator 19.2.0, SVG Export Plug-In . SVG Version: 6.00 Build 0)  -->
<svg version="1.1" id="Layer_1" xmlns="http://www.w3.org/2000/svg" xmlns:xlink="http://www.w3.org/1999/xlink" x="0px" y="0px"
	 viewBox="0 0 659.2 624.8" style="enable-background:new 0 0 659.2 624.8;" xml:space="preserve">
<style type="text/css">
	.st0{fill:#FDD501;}
</style>
<g>
	<path class="st0" d="M416.9,3966.7c-14.3-6.9-33.2-2.1-42.5,10.8c-3.4,4.7-5.5,10.3-5.5,16.1c0.1,15.2,17,27,32,24.2
		s26.2-17,28.3-32.1c0.6-4,0.5-8.4-1.8-11.7c-1.9-2.7-4.9-4.4-8-5.7c-10.7-4.6-23.4-6.1-33.8-0.9s-17.1,18.5-12.3,29.1
		c2.1,4.6,5.9,8.2,10.4,10.5c9.7,5,22.4,3.5,30.6-3.6c8.2-7.1,11.6-19.4,8-29.7c-4.4-12.7-17.3-20.4-29.9-25.1
		c-16.1-5.9-35.8-8.1-48.8,3c-5.1,4.4-8.7,10.4-10.8,16.8c-8.3,25,7.7,55.4,33,62.7c4.6,1.3,9.5,2,14.3,1.4
		c11.6-1.5,21.1-10,28.1-19.4c7.2-9.8,12.6-21,15.7-32.8c2.3-8.8,3.2-18.8-1.6-26.5c-2.9-4.8-7.7-8.1-12.8-10.6
		c-17.3-8.5-38.6-7.5-55.7,1.3c-17.1,8.8-24.7,3.3-30.7,21.6c-4.2,12.7-10.1,49.5-1.8,60c6.7,8.5,41.5,25.1,52.1,27.7
		c19.3,4.8,18.1-5.6,33.8-17.8c11.6-9,16.7-24.1,19.6-38.5c1.2-5.8,2.1-12.2-0.6-17.5c-3.2-6.4-10.7-9.4-17.6-11.3
		c-16.5-4.5-33.9-5.6-50.9-3.5c-10.9,1.4-22.7,4.9-28.5,14.2c-7,11.3-1.9,27,8.1,35.7c10.1,8.7,23.7,11.8,36.9,13.6
		c12.5,1.7,25.5,2.6,37.4-1.7c16.2-5.8,28.1-20.8,32.5-37.5c1.6-5.9,2.3-12.3,0.7-18.2c-2.5-9.3-10.1-16.3-18-21.7
		c-15.2-10.3-33.1-16.6-51.5-18.1c-12-1-24.8,0.3-34.5,7.4c-13.3,9.8-17.3,27.9-18.2,44.4c-0.6,11-0.2,22.4,3.8,32.7
		c8,20.7,29.3,33.6,50.8,39c10.1,2.5,21,3.7,30.7,0.1c11.3-4.1,19.6-14.2,24.3-25.2c4.8-11,6.5-23,8.1-34.9c0.7-5,1.4-10.2,0-15.1
		c-1.4-4.9-4.7-9-8.2-12.7c-14-14.4-33.3-23.5-53.4-25.1c-7.2-0.6-14.7-0.1-21.3,2.8c-14.4,6.4-21.5,24.7-17.1,39.9
		c4.4,15.2,18.5,26.4,33.9,29.5c6.7,1.4,14.1,1.2,19.7-2.5c4.7-3.1,7.5-8.1,10.3-13c5-9,9.5-21.7,1.6-28.3
		c-4.3-3.6-10.6-3.5-16.1-2.2c-12.4,2.9-23.5,10.9-30.2,21.7c-2.6,4.2-4.5,9.8-1.8,13.9c1.9,2.8,5.4,4.1,8.8,4.4
		c13.6,1.2,25.3-9.8,32.6-21.4c0.9-1.5,1.9-3.2,1.6-4.9c-0.4-2.8-3.5-4.3-6.2-5c-11.5-2.8-24.3,0.8-32.7,9.1
		c8.7,8.3,25.1,5.4,30.6-5.2c-8.9-7.3-21.2-10.1-32.4-7.5c-5.5,1.3-11.4,4.9-11.6,10.5c-0.2,4.1,2.9,7.8,6.5,9.9
		c8.5,5,20.7,3.1,26.7-4.8c6-7.9,4.3-20.7-4-26.1c-8.2-5.5-21.2-1.5-24.5,7.8c-2.6,7.4,1,16,7.4,20.5c6.4,4.5,14.9,5.2,22.4,3.4
		c12.7-3.2,23.3-13.7,26.5-26.4c0.7-2.8,1.1-5.9-0.1-8.6c-1.7-4.1-6.2-6.1-10.4-7.3c-9.2-2.6-19.6-2.7-27.6,2.4
		c-10.3,6.6-13.9,19.7-15.5,31.8c-1.7,13.3-1.3,28.6,8.6,37.6c4.8,4.4,11.3,6.6,17.6,8.1c6.2,1.5,12.7,2.4,18.8,0.6
		c11.8-3.4,19.2-17.7,15.1-29.3c-4.1-11.4-16.3-17.5-27.9-20.9c-8.6-2.5-17.5-4.1-26.4-4.8c-7.7-0.6-17.6,1.1-19.2,8.7
		c-0.9,4,1.2,8.2,3.8,11.3c8,9.6,22.2,13.4,33.9,9.3"/>
</g>
<text transform="matrix(1 0 0 1 334.6638 3991.5803)"><tspan x="0" y="0" style="font-family:'Montserrat-Black'; font-size:16.0979px;">GET YOUR </tspan><tspan x="0" y="18" style="font-family:'Montserrat-Black'; font-size:18.9709px; letter-spacing:1;">TICKETS</tspan></text>
<g>
	<path class="st0" d="M500.5,198.1c-64.9-31.5-151-9.7-193,49c-15.2,21.3-25,47-24.8,73.2c0.6,69.3,77.4,122.6,145.5,110.2
		s119-77.4,128.5-146c2.5-18.2,2.2-38-8.1-53.2c-8.5-12.5-22.4-20-36.3-25.9c-48.6-20.9-106.4-27.7-153.7-4s-77.5,84.2-55.8,132.4
		c9.3,20.8,26.9,37.2,47.1,47.7c44,22.7,101.6,15.8,139.1-16.6s52.6-88.4,36.5-135.2c-19.9-57.9-78.5-92.9-135.9-114.1
		c-73-26.9-162.6-36.7-221.9,13.6c-23.4,19.8-39.5,47.3-49.2,76.4c-37.9,113.9,34.8,252,150.1,285.2c21.1,6.1,43.4,9,65.1,6.3
		c52.8-6.7,96-45.6,127.6-88.4c32.9-44.6,57.2-95.5,71.3-149.1c10.5-40,14.5-85.3-7.3-120.5c-13.4-21.6-35.2-36.8-58-48.1
		C388.8,52.3,292,56.6,214.1,96.8s-112.2,15.1-139.7,98.3c-19,57.6-46.1,225.1-8.4,272.6c30.7,38.6,188.8,114.1,236.7,126
		c87.9,22,82.2-25.5,153.8-81c52.8-41,75.9-109.4,89.3-174.9c5.4-26.5,9.4-55.3-2.7-79.4c-14.7-29.3-48.6-42.9-80.2-51.4
		c-75.1-20.2-154.2-25.6-231.3-15.8c-49.4,6.3-103,22.2-129.4,64.5c-32,51.3-8.8,122.9,37,162.3s107.9,53.5,167.8,61.9
		c56.7,7.9,116,11.7,169.8-7.6c73.5-26.4,127.7-94.7,147.6-170.3c7.1-27,10.2-55.9,3-82.9c-11.2-42.2-45.8-74-82-98.5
		c-69.3-46.8-150.7-75.5-234-82.5c-54.4-4.6-112.7,1.2-156.7,33.5c-60.6,44.6-78.6,126.9-82.5,202c-2.6,50.1-0.9,101.6,17.2,148.4
		c36.4,94.1,133,152.9,230.9,177.4c45.8,11.5,95.2,16.8,139.6,0.5c51.2-18.8,88.9-64.4,110.5-114.4s29.5-104.7,37-158.7
		c3.2-22.9,6.4-46.6,0.2-68.8c-6.2-22.3-21.2-41.1-37.3-57.7C506.8,134.8,418.9,93.6,327.9,86.4c-32.9-2.6-66.9-0.7-97,12.8
		c-65.4,29.2-97.6,112.3-77.7,181.1s84.1,120,154.3,134.2c30.3,6.1,63.9,5.6,89.7-11.4c21.1-14,34.3-37,46.6-59.1
		c22.8-40.9,43.1-98.5,7.3-128.6c-19.6-16.5-48.4-16-73.4-10.2c-56.4,13.1-107,49.4-137.4,98.6c-11.8,19.1-20.5,44.5-8.1,63.2
		c8.5,12.9,24.7,18.6,40,20c62,5.5,115.1-44.5,148.2-97.2c4.3-6.8,8.5-14.4,7.4-22.4c-1.7-12.7-15.8-19.5-28.2-22.5
		c-52.1-12.7-110.3,3.5-148.4,41.2c39.6,37.5,114.3,24.8,139.1-23.8c-40.4-33-96.3-46-147.1-34.1c-24.8,5.8-51.7,22.1-52.8,47.5
		c-0.8,18.8,13.4,35.3,29.6,45c38.7,22.9,94,14.1,121.3-21.7s19.4-94-18.1-118.8s-96.6-6.9-111.4,35.5
		c-11.7,33.5,4.7,72.7,33.7,93.2c29,20.5,67.6,23.9,102,15.3c57.7-14.4,105.7-62.3,120.3-119.9c3.2-12.9,4.9-26.8-0.2-39.1
		c-7.7-18.5-28.2-27.9-47.5-33.4c-41.6-11.8-89-12.5-125.5,10.9c-46.6,29.8-63.1,89.5-70.3,144.4c-8,60.3-5.9,129.8,39.1,170.8
		c22,20,51.2,30,80.2,36.9c28.1,6.6,57.8,10.8,85.5,2.9c53.8-15.3,87.3-80.4,68.5-133.1c-18.5-51.7-74.1-79.7-126.8-95
		c-39.1-11.4-79.4-18.7-120-21.7c-34.9-2.6-79.8,5.2-87.5,39.4c-4.1,18.3,5.4,37.1,17.4,51.5c36.5,43.5,100.8,61,154.3,42.1"/>
</g>
</svg>
