<?xml version="1.0" encoding="utf-8"?>
<!-- Generator: Adobe Illustrator 19.2.0, SVG Export Plug-In . SVG Version: 6.00 Build 0)  -->
<svg version="1.1" id="Layer_1" xmlns="http://www.w3.org/2000/svg" xmlns:xlink="http://www.w3.org/1999/xlink" x="0px" y="0px"
	 viewBox="0 0 320.5 323.1" style="enable-background:new 0 0 320.5 323.1;" xml:space="preserve">
<style type="text/css">
	.st0{fill:#ACACAC;}
	.st1{fill:#1B1C1C;}
</style>
<g>
	<g>
		<path class="st0" d="M303.5,305.9H19.1c-1.1,0-2-0.9-2-2V19.5c0-1.1,0.9-2,2-2h284.4c1.1,0,2,0.9,2,2v284.4
			C305.5,305,304.6,305.9,303.5,305.9z"/>
	</g>
	<path class="st1" d="M132.8,208.9v97h41.9v-97h41.9v-44.4h-43.2v-17.2c0,0-0.5-9.9,9.8-11.3H217V93h-35.1c0,0-39-2.9-48.8,48.8v23
		h-31.8v43.7L132.8,208.9z"/>
</g>
</svg>
