<?xml version="1.0" encoding="utf-8"?>
<!-- Generator: Adobe Illustrator 19.2.0, SVG Export Plug-In . SVG Version: 6.00 Build 0)  -->
<svg version="1.1" id="Layer_1" xmlns="http://www.w3.org/2000/svg" xmlns:xlink="http://www.w3.org/1999/xlink" x="0px" y="0px"
	 viewBox="0 0 505.6 449.3" style="enable-background:new 0 0 505.6 449.3;" xml:space="preserve">
<style type="text/css">
	.st0{fill:#00B2B0;}
	.st1{opacity:0.32;}
	.st2{fill:#4F4F4F;}
	.st3{font-family:'Montserrat-Black';}
	.st4{font-size:88.9982px;}
	.st5{letter-spacing:4;}
	.st6{font-size:81.6302px;}
	.st7{fill:#ACACAC;}
	.st8{fill:#FFFFFF;}
	.st9{opacity:0.32;fill:#4F4F4F;}
	.st10{fill:#636363;}
	.st11{fill:#6D6D6D;}
	.st12{fill:none;stroke:#6D6D6D;stroke-width:0.7719;stroke-miterlimit:10;}
</style>
<g>
	<path class="st0" d="M312.7,30.2v268.7c0,8.5-6.9,15.4-15.4,15.4H110.5L49.8,371l-1.7-56.8H28.6c-8.5,0-15.4-6.9-15.4-15.4V30.2
		c0-8.5,6.9-15.4,15.4-15.4h268.7C305.8,14.7,312.7,21.6,312.7,30.2z"/>
	<g>
		<text transform="matrix(1 0 0 1 66.8945 144.4953)" class="st1"><tspan x="0" y="0" class="st2 st3 st4 st5">CITY </tspan><tspan x="0" y="69.2" class="st2 st3 st6">FOLK</tspan></text>
		<text transform="matrix(1 0 0 1 54.5825 144.4953)"><tspan x="0" y="0" class="st7 st3 st4 st5">CITY </tspan><tspan x="0" y="69.2" class="st7 st3 st6">FOLK</tspan></text>
	</g>
	<g>
		<path class="st7" d="M483.8,214c-0.3,2-5.7-7.9-5.7-7.9l-1.3,1c0,0,3.6,6.2,4.5,8.4c0.2,0.6,0.2,3.4-2.3,1.1
			c-1.7-1.6-4.5-8.1-4.5-8.1L473,209c0,0,3.9,5.9,4.8,8.1c0.3,0.6,0.5,4.7-2.1,1.5c-1.6-2-4.4-9.2-4.4-9.2l-1.5,0.6
			c0,0,3.7,6.4,4.4,8.7c0.2,0.7-0.2,4.4-2.4,1.5c-2.3-2.9-6-13.4-6-13.4s-4-2.1-3.1,3.9s0.5,6.6,0.5,6.6s-0.8,2.7-2.3,0.3l-1.1-12.8
			l2.8-7.7c0,0-7.8-34.3-67.4-51c-3.1-0.9-11.7,2.5-5.8,11.5c1.4,2,5.7,5.6,5.7,7.9c0,0-3.1-1.7-4.3-2c-1.1-0.3-4.3-0.2,0.2,4.3
			c4.5,4.5,6.4,9.3,6.4,9.3s-3.5-2.5-4.8-3c-0.9-0.3-3.6-0.7-1.4,3.4c2.2,4,5,12.2,5.2,12.7c-0.3-0.3-3.2-3.1-4.5-3.4
			c-1.2-0.2-3.2,0.9-1.4,4.5c1.8,3.5,5.5,11,5.7,11.5c-0.3-0.3-3.1-2.7-4.3-2.9c-1.1-0.2-4,1.1-1.6,3.9c2.3,2.8,8,10.6,8.4,11.1
			c-0.2-0.1-4.3-2.4-5.8-2.9c-1-0.4-3.6-0.9-1.1,4.3c2.6,5.1,5.8,11,5.8,11s-4-2.6-5.4-3.3c-0.5-0.3-2.3-0.8-0.9,2.2
			c1.3,2.9,5.9,11.1,6.2,11.7c-0.5-0.4-4.3-3.5-6-3.9c-0.8-0.2-3.8,0.8-1.7,3c2,2.1,4.7,9.8,4.9,10.4c-0.4-0.4-3.6-3.3-4.8-4.1
			c-0.8-0.5-3.2-1.3-0.6,3.5c2.7,4.9,4.1,13.1,4.1,13.1s-3.3-4.9-5-5.8c-0.8-0.5-3.2-0.6-0.7,3.7c2.6,4.3,2.9,10.1,2.9,10.1
			s-3.2-4.5-4.8-5.5c-0.9-0.6-3.6-1,0,4.4c3.6,5.4,3.2,10,3.2,10s-3.2-4.4-4.7-5.5c-1.1-0.8-3.8-1.8-0.9,5.3
			c2.9,7.1,1.5,9.4,1.5,9.4s-2-3.8-2.9-4.9c-0.5-0.5-2.1-1.6-1.5,2.4c0.6,4,0.8,6.3,0.8,6.3s-4.2-5.5-4.2-2.9c0,2.6,0,7.5,0,7.5
			s6.3-0.4,5.3,5.1c-0.8,4.5-7.2,2.5-7.2,2.5l-25.3,62.3l-2.8,58.3c0,0,0,7.4-6.5,10.3c-7.8,3.5-35.5,3.6-50,3.2
			c-1.3,0-1.1-0.9,4.2-3c5.3-2.1-4.2-0.9-5.5-1.3c-1.5-0.4-0.7-2,6-1.7c1.3,0.1-2.3-2.6-4.5-2.5c-2.3,0-1.5-1.2,1.2-1.3
			c2.7-0.1,36.1-3.7,37.3-8c1.2-4.3,1.2-20.8,0.6-28.6c-0.6-7.8-3.8-30.7-3.8-30.7l9.6-40.2c0,0,1.3-3.5-7.2-3.7
			c-8.5-0.2-16.9-0.4-16.9-0.4s-3.2-0.7-5,3.9c-1.7,4.5-14.3,33.8-13.7,35.1c0.6,1.3,19.1,46.1,24.7,49.4c5.6,3.2-13.9,16-13.9,16
			s-12.3-2.4-20.8,3.9c0,0-1.1,0.9-1.6,1c-0.8,0.3-2.4,0.3,1.7-3c0,0,2.1-1.7-0.9-1.1c-3,0.6-3,1.7-3.9,1.2
			c-0.4-0.2-0.2-1.5,0.1-1.8c0.7-1,4.5-1.6,4.5-1.6s-3.9-0.1-5.2-0.4c-4.9-1.3-1.9-0.9,18.5-8.9c0,0,7.9-3.8,3.4-8.8
			c-4.5-5-28-40.8-28-40.8l7.1-49.2c0,0,1-2.4-3.2,0.3l-2.8,1.6c0.3-0.5,5.5-7.8,6.9-10.5c0.3-0.5,0.6-1.7-1.7-1.3
			c-2.2,0.3-4.3,2.9-4.6,3.3c0.2-0.7,2.7-8.5,6.2-11.1c3.6-2.7-0.1-3.7-0.7-2.9c-0.6,0.8-3.9,2.6-4.3,2.8c0.5-0.6,7-8.2,8.3-11.3
			c0.4-0.9,0.4-4-3.7-1c-0.7,0.5-2.6,2.2-2.8,2.4c0.3-0.5,3.5-6.1,4.3-8.2c0.3-0.7,0.9-4.3-2.5-1.5c-2.6,2.2-3.3,2.7-3.4,2.8
			c0.3-0.6,4.5-7.8,6.2-10c0.5-0.6,2.5-4.6-0.5-3.1c-2.2,1.1-4.3,3.5-4.6,3.8c0.2-0.5,4-7.3,6-9.3c0.7-0.7,2-4.8-2-3.4
			c-4,1.3-4.3,1.6-4.3,1.6s7.7-7.4,9.4-10.5c0.5-0.8,0.9-3.2-3-2.4l-3.7,2.7c0.6-0.7,5.2-6.5,6.1-8.8c0.3-0.7,0.6-3.3-2.1-2.3
			c-2.3,0.9-3.4,1.9-3.6,2.1c0.3-0.5,4.1-6.6,5-8.8c0.6-1.6,1.1-4.6-6.6,1.2c-7.7,5.8-22.6,11.1-55.3,1.2l1.2-5.9c0,0,0,0,0,0
			c-0.7-1.3-4-8-4.5-9.8c-0.5-2,1.1-0.9,1.1-0.9c0.8,1.4,3.9,5.8,4.7,6.9l0,0c3.2,2.3,21.4,14.2,43.9,4.8
			c24.9-10.3,19.1-25.8,19.1-25.8s-0.7-2.5-3.4,0.4l-1.9,2c0.5-0.7,4.3-6.4,5.6-8.3c0.6-0.8,2.8-4.9-2-3.6c-1.2,0.3-4.7,2.2-4.7,2.2
			s4.4-4.8,5.6-6.6c0.7-1,2.7-5.1-2.9-3.9l-3.9,1.7c0,0,5.5-4.7,6.6-6.8c0.7-1.2,1.4-6.3-1.7-5.2c-2.5,0.9-4.4,2.8-5.1,3.6
			c1.5-1.8,7.8-9.9,6.4-11.3c-1.6-1.6-6.4,3.4-6.4,3.4s1.9-5.5,5.3-14.3c0.3-0.8,0.2-2.7-2.7-1.7c-2.6,0.9-4.5,4.3-4.8,4.9
			c0.4-1.2,4-12.4,3-14.3c-1-1.9-4.5,2.4-4.9,2.9c0.3-0.7,4.3-9.8,5-13.1c0.2-0.7,0.2-3.2-2.9,0.4c-0.6,0.8-2.5,3-2.7,3.3
			c0.2-0.6,4.2-10.6,5.6-14c0.3-0.8,1.3-3.3-2.3-2.2c-2.9,0.8-4.3,2.3-4.9,2.8c0.9-1.2,4.4-6.2,5.3-9.3c1.1-3.5-2.3-8.4-9.3-7.8
			c-6.9,0.6-14-3.5-14.8-8.1c0,0,25.1-0.4,28.1-8.1c0,0-5.8-4.2-7.4-2.2c-1.2,1.6-1.9,2.4-1.9,2.4l-1.6-3.7l-3.1-0.1l-2,2.9
			l-1.6-3.1l-1.7-0.1l-2.6,2.8l-1.5-3.2l-1.7-0.2l-2.1,2.4l-0.9-4.7h-2c0,0-6.8-6-4.4-13.4l30.8-3.9c0,0,4.6-3.7,3.1-9.6l24.5-1.7
			c0,0-0.3-23.2,22.2-19.8l1.4,17.5c0,0,6.5-0.3,12.2,1c0,0,1.3-16.2,16.8-14c2.1,0.3,6.3,0.8,6.4,5.4l0.8,21.4L380.5,81
			c0,0-4-1.8-5.4-2.1c-0.9-0.2-3.9-0.3,0.1,3.8c3.8,3.8,6.8,8.4,7.1,8.9c-0.6-0.4-7.4-4.9-6.7-2c0.7,3,7.8,13,8.2,13.6
			c-0.5-0.4-6.9-5.7-7.2-4.6c-0.3,1.2,7.6,13.7,7.6,13.7s-4.2-2.9-5.8-3.1c-0.7-0.1-2.7,0.7,0,2.8s5.9,5.3,5.9,5.3s-2.7-0.3-3.5-0.1
			c-0.7,0.2-1.6,0.9,0.9,2.6c2.3,1.6,5.4,5,5.7,5.4c-0.4-0.2-3.5-1.8-4.7-1.9c-0.8-0.1-2.7,0.5,0.2,3.3c3,2.8,4.9,5.6,4.9,5.6
			s-3.6-0.5-4.8-0.1c-0.6,0.2-1.7,1.4,0.9,2.4c24.2,9.8,69.4,17.4,85.3,60.4l5.6,0.3c0,0,4.9,7.2,4.9,9.3
			C479.9,204.6,484.1,212.1,483.8,214z"/>
		<path class="st8" d="M246.7,70.1c0,0,1.3,1.9,6.9,0.2l-0.2-4.1l-6.6,0.4L246.7,70.1z"/>
		<path class="st8" d="M346.5,51.3c0,0,0.5-12.8,13.8-10.9c0,0,2.4,0.4,2.5,1.7l-0.2,20L346.5,51.3z"/>
		<path class="st9" d="M255.2,73.8c0,0,1.3,1.9,6.9,0.2l-0.2-4.1l-6.6,0.4L255.2,73.8z"/>
		<path class="st9" d="M492.4,218.3c-0.3,2-5.7-7.9-5.7-7.9l-1.3,1c0,0,3.6,6.2,4.5,8.4c0.2,0.6,0.2,3.4-2.3,1.1
			c-1.7-1.6-4.5-8.1-4.5-8.1l-1.6,0.5c0,0,3.9,5.9,4.8,8.1c0.3,0.6,0.5,4.7-2.1,1.5c-1.6-2-4.4-9.2-4.4-9.2l-1.5,0.6
			c0,0,3.7,6.4,4.4,8.7c0.2,0.7-0.2,4.4-2.4,1.5c-2.3-2.9-6-13.4-6-13.4s-4-2.1-3.1,3.9s0.5,6.6,0.5,6.6s-0.8,2.7-2.3,0.3l-1.1-12.8
			l2.8-7.7c0,0-7.8-34.3-67.4-51c-3.1-0.9-11.7,2.5-5.8,11.5c1.4,2,5.7,5.6,5.7,7.9c0,0-3.1-1.7-4.3-2c-1.1-0.3-4.3-0.2,0.2,4.3
			c4.5,4.5,6.4,9.3,6.4,9.3s-3.5-2.5-4.8-3c-0.9-0.3-3.6-0.7-1.4,3.4c2.2,4,5,12.2,5.2,12.7c-0.3-0.3-3.2-3.1-4.5-3.4
			c-1.2-0.2-3.2,0.9-1.4,4.5c1.8,3.5,5.5,11,5.7,11.5c-0.3-0.3-3.1-2.7-4.3-2.9c-1.1-0.2-4,1.1-1.6,3.9c2.3,2.8,8,10.6,8.4,11.1
			c-0.2-0.1-4.3-2.4-5.8-2.9c-1-0.4-3.6-0.9-1.1,4.3c2.6,5.1,5.8,11,5.8,11s-4-2.6-5.4-3.3c-0.5-0.3-2.3-0.8-0.9,2.2
			c1.3,2.9,5.9,11.1,6.2,11.7c-0.5-0.4-4.3-3.5-6-3.9c-0.8-0.2-3.8,0.8-1.7,3c2,2.1,4.7,9.8,4.9,10.4c-0.4-0.4-3.6-3.3-4.8-4.1
			c-0.8-0.5-3.2-1.3-0.6,3.5s4.1,13.1,4.1,13.1s-3.3-4.9-5-5.8c-0.8-0.5-3.2-0.6-0.7,3.7c2.6,4.3,2.9,10.1,2.9,10.1
			s-3.2-4.5-4.8-5.5c-0.9-0.6-3.6-1,0,4.4c3.6,5.4,3.2,10,3.2,10s-3.2-4.4-4.7-5.5c-1.1-0.8-3.8-1.8-0.9,5.3
			c2.9,7.1,1.5,9.4,1.5,9.4s-2-3.8-2.9-4.9c-0.5-0.5-2.1-1.6-1.5,2.4c0.6,4,0.8,6.3,0.8,6.3s-4.2-5.5-4.2-2.9c0,2.6,0,7.5,0,7.5
			s6.3-0.4,5.3,5.1c-0.8,4.5-7.2,2.5-7.2,2.5l-25.3,62.3l-2.8,58.3c0,0,0,7.4-6.5,10.3c-7.8,3.5-35.5,3.6-50,3.2
			c-1.3,0-1.1-0.9,4.2-3c5.3-2.1-4.2-0.9-5.5-1.3c-1.5-0.4-0.7-2,6-1.7c1.3,0.1-2.3-2.6-4.5-2.5c-2.3,0-1.5-1.2,1.2-1.3
			c2.7-0.1,36.1-3.7,37.3-8c1.2-4.3,1.2-20.8,0.6-28.6c-0.6-7.8-3.8-30.7-3.8-30.7l9.6-40.2c0,0,1.3-3.5-7.2-3.7
			c-8.5-0.2-16.9-0.4-16.9-0.4s-3.2-0.7-5,3.9c-1.7,4.5-14.3,33.8-13.7,35.1c0.6,1.3,19.1,46.1,24.7,49.4c5.6,3.2-13.9,16-13.9,16
			s-12.3-2.4-20.8,3.9c0,0-1.1,0.9-1.6,1c-0.8,0.3-2.4,0.3,1.7-3c0,0,2.1-1.7-0.9-1.1c-3,0.6-3,1.7-3.9,1.2
			c-0.4-0.2-0.2-1.5,0.1-1.8c0.7-1,4.5-1.6,4.5-1.6s-3.9-0.1-5.2-0.4c-4.9-1.3-1.9-0.9,18.5-8.9c0,0,7.9-3.8,3.4-8.8
			c-4.5-5-28-40.8-28-40.8l7.1-49.2c0,0,1-2.4-3.2,0.3l-2.8,1.6c0.3-0.5,5.5-7.8,6.9-10.5c0.3-0.5,0.6-1.7-1.7-1.3
			c-2.2,0.3-4.3,2.9-4.6,3.3c0.2-0.7,2.7-8.5,6.2-11.1c3.6-2.7-0.1-3.7-0.7-2.9c-0.6,0.8-3.9,2.6-4.3,2.8c0.5-0.6,7-8.2,8.3-11.3
			c0.4-0.9,0.4-4-3.7-1c-0.7,0.5-2.6,2.2-2.8,2.4c0.3-0.5,3.5-6.1,4.3-8.2c0.3-0.7,0.9-4.3-2.5-1.5c-2.6,2.2-3.3,2.7-3.4,2.8
			c0.3-0.6,4.5-7.8,6.2-10c0.5-0.6,2.5-4.6-0.5-3.1c-2.2,1.1-4.3,3.5-4.6,3.8c0.2-0.5,4-7.3,6-9.3c0.7-0.7,2-4.8-2-3.4
			c-4,1.3-4.3,1.6-4.3,1.6s7.7-7.4,9.4-10.5c0.5-0.8,0.9-3.2-3-2.4l-3.7,2.7c0.6-0.7,5.2-6.5,6.1-8.8c0.3-0.7,0.6-3.3-2.1-2.3
			c-2.3,0.9-3.4,1.9-3.6,2.1c0.3-0.5,4.1-6.6,5-8.8c0.6-1.6,1.1-4.6-6.6,1.2c-7.7,5.8-29.3,5.9-62.1-4.1l7.9-0.6c0,0,0,0,0,0
			c-0.7-1.3-4-8-4.5-9.8c-0.5-2,1.1-0.9,1.1-0.9c0.8,1.4,3.9,5.8,4.7,6.9l0,0c3.2,2.3,20.3,9.8,43.9,4.8
			c26.4-5.6,19.1-25.8,19.1-25.8s-0.7-2.5-3.4,0.4l-1.9,2c0.5-0.7,4.3-6.4,5.6-8.3c0.6-0.8,2.8-4.9-2-3.6c-1.2,0.3-4.7,2.2-4.7,2.2
			s4.4-4.8,5.6-6.6c0.7-1,2.7-5.1-2.9-3.9l-3.9,1.7c0,0,5.5-4.7,6.6-6.8c0.7-1.2,1.4-6.3-1.7-5.2c-2.5,0.9-4.4,2.8-5.1,3.6
			c1.5-1.8,7.8-9.9,6.4-11.3c-1.6-1.6-6.4,3.4-6.4,3.4s1.9-5.5,5.3-14.3c0.3-0.8,0.2-2.7-2.7-1.7c-2.6,0.9-4.5,4.3-4.8,4.9
			c0.4-1.2,4-12.4,3-14.3c-1-1.9-4.5,2.4-4.9,2.9c0.3-0.7,4.3-9.8,5-13.1c0.2-0.7,0.2-3.2-2.9,0.4c-0.6,0.8-2.5,3-2.7,3.3
			c0.2-0.6,4.2-10.6,5.6-14c0.3-0.8,1.3-3.3-2.3-2.2c-2.9,0.8-4.3,2.3-4.9,2.8c0.9-1.2,4.4-6.2,5.3-9.3c1.1-3.5-2.3-8.4-9.3-7.8
			c-6.9,0.6-14-3.5-14.8-8.1c0,0,25.1-0.4,28.1-8.1c0,0-5.8-4.2-7.4-2.2c-1.2,1.6-1.9,2.4-1.9,2.4l-1.6-3.7l-3.1-0.1l-2,2.9
			l-1.6-3.1l-1.7-0.1l-2.6,2.8l-1.5-3.2l-1.7-0.2l-2.1,2.4l-0.9-4.7h-2c0,0-6.8-6-4.4-13.4l30.8-3.9c0,0,4.6-3.7,3.1-9.6l24.5-1.7
			c0,0-0.3-23.2,22.2-19.8l1.4,17.5c0,0,6.5-0.3,12.2,1c0,0,1.3-16.2,16.8-14c2.1,0.3,6.3,0.8,6.4,5.4l0.8,21.4l13.8,17.6
			c0,0-4-1.8-5.4-2.1c-0.9-0.2-3.9-0.3,0.1,3.8c3.8,3.8,6.8,8.4,7.1,8.9c-0.6-0.4-7.4-4.9-6.7-2c0.7,3,7.8,13,8.2,13.6
			c-0.5-0.4-6.9-5.7-7.2-4.6c-0.3,1.2,7.6,13.7,7.6,13.7s-4.2-2.9-5.8-3.1c-0.7-0.1-2.7,0.7,0,2.8c2.7,2.2,5.9,5.3,5.9,5.3
			s-2.7-0.3-3.5-0.1c-0.7,0.2-1.6,0.9,0.9,2.6c2.3,1.6,5.4,5,5.7,5.4c-0.4-0.2-3.5-1.8-4.7-1.9c-0.8-0.1-2.7,0.5,0.2,3.3
			c3,2.8,4.9,5.6,4.9,5.6s-3.6-0.5-4.8-0.1c-0.6,0.2-1.7,1.4,0.9,2.4c24.2,9.8,69.4,17.4,85.3,60.4l5.6,0.3c0,0,4.9,7.2,4.9,9.3
			C488.5,208.9,492.7,216.4,492.4,218.3z"/>
		<g>
			<path class="st10" d="M425,175.3c22.3,21.9,14.5,60.2,14.5,60.2s-0.8,25.7-24.1,37.3c-23.3,11.6-50.6-8.8-56.6-13.6
				c-6.5-5.3-15.8-1.2-15.8-1.2c-16,5.4-25.3,2.4-25.3,2.4c-17.2-3.2-18.9-26.5-18.9-26.5s-0.2-2-0.3-5.2c-4.6,0-80.6-0.1-86-0.6
				c-0.1,0-0.2,0-0.3,0c-5.4-0.3-8.5,3.9-8.5,3.9c-11.5-2.9-37,1.6-37,1.6c1-3.2,0.2-7.2-1.2-8.9c-1.4-1.7,0.2-3.7,0.2-3.7
				c-1.4-1.6,0.2-3.9,0.2-3.9c2.4-3.6,1-7.9,0.9-8.2c6.7,3.1,37.6,2.1,37.6,2.1c1.4,3.1,7.9,3.5,7.9,3.5l86.6-0.5l0,0
				c0.6-8,2.1-15.3,5.9-22.5c8.4-16,34.5-8.1,42.7-6.2c8,1.8,18.1-6.6,18.1-6.6S402.7,153.4,425,175.3z"/>
			<circle class="st11" cx="345.2" cy="221.6" r="18.9"/>
			<circle class="st2" cx="345.4" cy="221.3" r="14.6"/>
			<path class="st11" d="M396.5,197.6c0,0,0.1,2.3-1.8,2.6c-1.9,0.3-3.1,3-3.1,3v36.7c0,0,0.5,1.9,2.2,2.3c1.7,0.4,2.4,1.1,2.7,2.9
				c0,0,2.7,1,4.1-1.1v-46C400.6,198.1,398.6,196.4,396.5,197.6z M396.8,227c0,0.5-0.4,1-1,1c-0.5,0-1-0.4-1-1c0-0.6,0.4-1,1-1
				C396.3,226,396.8,226.5,396.8,227z M396.8,224.7c0,0.5-0.4,1-1,1c-0.5,0-1-0.5-1-1c0-0.5,0.4-1,1-1
				C396.3,223.7,396.8,224.1,396.8,224.7z M396.8,222.3c0,0.5-0.4,1-1,1c-0.5,0-1-0.4-1-1c0-0.6,0.4-1,1-1
				C396.3,221.3,396.8,221.8,396.8,222.3z M396.8,219.9c0,0.5-0.4,1-1,1c-0.5,0-1-0.5-1-1c0-0.6,0.4-1,1-1
				C396.3,218.9,396.8,219.3,396.8,219.9z M396.8,217.5c0,0.6-0.4,1-1,1c-0.5,0-1-0.4-1-1c0-0.5,0.4-1,1-1
				C396.3,216.5,396.8,217,396.8,217.5z M396.8,215.1c0,0.5-0.4,1-1,1c-0.5,0-1-0.4-1-1c0-0.6,0.4-1,1-1
				C396.3,214.1,396.8,214.5,396.8,215.1z"/>
			<path class="st2" d="M195.3,234.5l-1.6,0.5v2.5c0,0.4,0.3,0.8,0.7,1c0.9,0.3,2.4,0.6,4-0.3c0.3-0.2,0.5-0.5,0.5-0.9l0-2.4
				l-1.7-0.5v-3.4h-1.9C195.3,231.1,195.3,234.1,195.3,234.5z"/>
			<path class="st2" d="M185.7,234.5l-1.6,0.5v2.5c0,0.4,0.3,0.8,0.7,1c0.9,0.3,2.4,0.6,4-0.3c0.3-0.2,0.5-0.5,0.5-0.9l0-2.4
				l-1.7-0.5v-3.4h-1.9C185.7,231.1,185.8,234.1,185.7,234.5z"/>
			<path class="st2" d="M177.2,234.5l-1.6,0.5v2.5c0,0.4,0.3,0.8,0.7,1c0.9,0.3,2.4,0.6,4-0.3c0.3-0.2,0.5-0.5,0.5-0.9l0-2.4
				l-1.7-0.5v-3.4h-1.9C177.2,231.1,177.2,234.1,177.2,234.5z"/>
			<path class="st2" d="M179.3,207.4l1.6-0.5v-2.5c0-0.4-0.3-0.8-0.7-1c-0.9-0.3-2.4-0.6-4,0.3c-0.3,0.2-0.5,0.5-0.5,0.9l0,2.4
				l1.7,0.5v3.4h1.9C179.3,210.9,179.2,207.8,179.3,207.4z"/>
			<path class="st2" d="M188.8,207.4l1.6-0.5v-2.5c0-0.4-0.3-0.8-0.7-1c-0.9-0.3-2.4-0.6-4,0.3c-0.3,0.2-0.5,0.5-0.5,0.9l0,2.4
				l1.7,0.5v3.4h1.9C188.8,210.9,188.8,207.8,188.8,207.4z"/>
			<path class="st2" d="M197.4,207.4l1.6-0.5v-2.5c0-0.4-0.3-0.8-0.7-1c-0.9-0.3-2.4-0.6-4,0.3c-0.3,0.2-0.5,0.5-0.5,0.9l0,2.4
				l1.7,0.5v3.4h1.9C197.4,210.9,197.3,207.8,197.4,207.4z"/>
			<circle class="st11" cx="196.1" cy="225.8" r="2.2"/>
			<circle class="st11" cx="196.1" cy="216.4" r="2.2"/>
			<circle class="st11" cx="186.7" cy="216.4" r="2.2"/>
			<circle class="st11" cx="186.7" cy="225.8" r="2.2"/>
			<circle class="st11" cx="177.3" cy="225.8" r="2.2"/>
			<circle class="st11" cx="177.3" cy="216.9" r="2.2"/>
			<line class="st12" x1="179.5" y1="225.8" x2="395.8" y2="225.8"/>
			<line class="st12" x1="178.5" y1="216.4" x2="395.7" y2="216.4"/>
			<line class="st12" x1="186.7" y1="223.6" x2="395.8" y2="223.6"/>
			<line class="st12" x1="186.7" y1="218.6" x2="395.7" y2="218.6"/>
			<line class="st12" x1="186.5" y1="221.3" x2="396.2" y2="221.3"/>
		</g>
		<circle class="st8" cx="299" cy="78.3" r="6.4"/>
		<path class="st7" d="M209,228.9c0,0,6.2,4.1,14.7,0c0,0-1-7.1-1.1-9.6c0-0.4-1-3-1.3,0c-0.2,2.7-1.2,3.9-1.2,3.9l-0.3,0
			c0,0-0.6-2.7-0.7-3.6c-0.1-0.4-0.3-2.6-1.1-0.5c-0.4,1-0.7,4.1-0.7,4.1l-0.5,0c0,0-0.2-3.2-0.4-4.1c-0.1-0.5-0.2-1.9-0.9,0.4
			c-0.3,1-0.7,3.9-0.7,3.9h-0.5c0,0-0.6-3.8-0.8-4.8c-0.1-0.3-0.2,0-1.3,1.3C210.9,221.2,209,228.9,209,228.9z"/>
		<path class="st9" d="M209,226.7c0,0,6.2,4.1,14.7,0c0,0-1-7.1-1.1-9.6c0-0.4-1-3-1.3,0c-0.2,2.7-1.2,3.9-1.2,3.9l-0.3,0
			c0,0-0.6-2.7-0.7-3.6c-0.1-0.4-0.3-2.6-1.1-0.5c-0.4,1-0.7,4.1-0.7,4.1l-0.5,0c0,0-0.2-3.2-0.4-4.1c-0.1-0.5-0.2-1.9-0.9,0.4
			c-0.3,1-0.7,3.9-0.7,3.9h-0.5c0,0-0.6-3.8-0.8-4.8c-0.1-0.3-0.2,0-1.3,1.3C210.9,219,209,226.7,209,226.7z"/>
	</g>
</g>
</svg>
