<?xml version="1.0" encoding="utf-8"?>
<!-- Generator: Adobe Illustrator 19.2.0, SVG Export Plug-In . SVG Version: 6.00 Build 0)  -->
<svg version="1.1" id="Layer_1" xmlns="http://www.w3.org/2000/svg" xmlns:xlink="http://www.w3.org/1999/xlink" x="0px" y="0px"
	 viewBox="0 0 320.5 323.1" style="enable-background:new 0 0 320.5 323.1;" xml:space="preserve">
<style type="text/css">
	.st0{fill:#ACACAC;}
	.st1{fill:#1B1C1C;}
</style>
<g>
	<g>
		<path class="st0" d="M305.7,304.5H21.2c-1.1,0-2-0.9-2-2V18c0-1.1,0.9-2,2-2h284.4c1.1,0,2,0.9,2,2v284.4
			C307.7,303.6,306.8,304.5,305.7,304.5z"/>
	</g>
	<g id="PYQXZ5_6_">
		<g>
			<path class="st1" d="M233,96.4c-1.3-2.4-3.5-2.9-6-2.9h-63.2c-21.1,0-42.2,0-63.3,0c-4.4,0-6.6,2.1-6.6,6.5
				c0,42.3,0,84.6,0,126.9c0,4.3,2.1,6.5,6.4,6.5h127c4.2,0,6.4-2.2,6.4-6.3c0-42.4,0-84.8,0-127.2C233.7,98.6,233.6,97.4,233,96.4z
				 M193.2,107.5c4.2,0.1,8.3,0,12.5,0c4.1,0,8.2,0,12.3,0c1.2,0,1.7,0.2,1.7,1.5c-0.1,8.3-0.1,16.7,0,25c0,1.2-0.4,1.5-1.5,1.5
				c-8.3-0.1-16.6-0.1-25,0c-1.2,0-1.5-0.4-1.5-1.5c0-8.3,0.1-16.6,0-25C191.7,107.8,192.1,107.5,193.2,107.5z M164,135.5
				c15.1,0.1,27.7,12.7,27.6,28.1c-0.1,15.1-12.7,27.9-28,27.7c-15.1,0.1-27.8-12.6-27.7-28C135.9,148.1,148.6,135.4,164,135.5z
				 M217.9,219.2c-18,0-36,0-54,0c-18,0-36,0-54.1,0c-1.3,0-1.8-0.2-1.8-1.7c0.1-19.7,0.1-39.5,0-59.2c0-1.4,0.4-1.8,1.8-1.7
				c4,0.1,8,0.1,11.9,0c1.1,0,1.3,0.1,1.2,1.4c-2.1,16.2,3.7,29.2,16.6,39c8.2,6.3,17.7,8.7,28,7.8c12.4-1.1,22.4-6.8,29.9-16.8
				c5.9-8,8.6-17,7.9-26.9c-0.1-1-0.1-2-0.4-3c-0.4-1.2-0.1-1.5,1.2-1.5c4.1,0.1,8.2,0.1,12.3,0c1.2,0,1.5,0.4,1.5,1.5
				c0,19.9,0,39.7,0,59.6C219.7,219.2,219,219.2,217.9,219.2z"/>
		</g>
	</g>
</g>
</svg>
