<?xml version="1.0" encoding="utf-8"?>
<!-- Generator: Adobe Illustrator 19.2.0, SVG Export Plug-In . SVG Version: 6.00 Build 0)  -->
<svg version="1.1" id="Layer_1" xmlns="http://www.w3.org/2000/svg" xmlns:xlink="http://www.w3.org/1999/xlink" x="0px" y="0px"
	 viewBox="0 0 659.2 624.8" style="enable-background:new 0 0 659.2 624.8;" xml:space="preserve">
<style type="text/css">
	.st0{fill:#FFFFFF;}
</style>
<g id="PYQXZ5_5_">
	<g>
		<path class="st0" d="M609.7,53.7c-5.2-9.5-13.9-11.4-23.7-11.3H337c-83.3,0-166.4-0.1-249.6,0c-17.5,0-25.9,8.3-25.9,25.6
			c-0.1,166.6,0,333.4,0,500c0,17,8.4,25.6,25.3,25.6h500.7c16.4,0,25.2-8.6,25.2-24.9c0.1-167.1,0.1-334.3,0-501.4
			C612.6,62.6,612.1,58,609.7,53.7z M453.1,97.7c16.4,0.2,32.8,0.1,49.2,0.1c16.2,0,32.3,0.1,48.5-0.1c4.6-0.1,6.6,0.7,6.6,6
			c-0.2,32.8-0.2,65.6,0,98.4c0,4.6-1.4,5.9-6,5.8c-32.8-0.2-65.6-0.2-98.3,0c-4.8,0.1-5.9-1.5-5.8-6c0.1-32.8,0.2-65.6-0.1-98.3
			C447.1,98.7,448.6,97.7,453.1,97.7z M338,208.1c59.5,0.4,109.3,50.1,108.9,110.7c-0.4,59.6-50,110.1-110.5,109
			c-59.5,0.5-109.5-49.7-109.3-110.2C227.3,257.8,277.1,207.7,338,208.1z M550.3,537.7c-71-0.1-142-0.1-213-0.1
			c-71.1,0-142-0.1-213,0.1c-5.2,0.1-7-0.9-7-6.6c0.3-77.8,0.3-155.7,0.1-233.4c-0.1-5.6,1.5-6.9,6.9-6.8
			c15.7,0.4,31.4,0.3,47.1,0.1c4.2-0.1,5.2,0.5,4.6,5.4c-8.4,64,14.4,115,65.2,153.8c32.4,24.7,69.8,34.5,110.2,30.9
			c49-4.4,88.4-26.8,117.7-66.4c23.3-31.5,33.7-66.9,31.2-106c-0.3-4-0.5-8-1.6-11.7c-1.5-4.8-0.3-6,4.6-5.9
			c16.2,0.3,32.4,0.3,48.5,0c4.9-0.1,5.8,1.5,5.8,6c-0.1,78.3-0.1,156.5,0.1,234.8C557.4,537.8,554.7,537.7,550.3,537.7z"/>
	</g>
</g>
</svg>
