<?xml version="1.0" encoding="utf-8"?>
<!-- Generator: Adobe Illustrator 19.2.0, SVG Export Plug-In . SVG Version: 6.00 Build 0)  -->
<svg version="1.1" id="Layer_1" xmlns="http://www.w3.org/2000/svg" xmlns:xlink="http://www.w3.org/1999/xlink" x="0px" y="0px"
	 viewBox="0 0 320.5 323.1" style="enable-background:new 0 0 320.5 323.1;" xml:space="preserve">
<style type="text/css">
	.st0{fill:#ACACAC;}
	.st1{fill:#1B1C1C;}
</style>
<g>
	<path class="st0" d="M302.6,306.2H18.1c-1.1,0-2-0.9-2-2V19.8c0-1.1,0.9-2,2-2h284.4c1.1,0,2,0.9,2,2v284.4
		C304.6,305.3,303.7,306.2,302.6,306.2z"/>
	<path class="st1" d="M91.4,104.2c0,0,28.1,36.4,71.8,35.7c0,0-6.3-30.8,24.5-41c0,0,19.2-7,35.1,9.3c0,0,10.3-0.9,22.7-8.2
		c0,0-0.9,9.1-15.1,19.2c0,0,8.7-0.3,19.8-5.3c0,0-8.4,12.5-17.4,18.1c0,0,6.3,54-45.9,89.7s-108.1-1.1-108.1-1.1
		s26.6,5.5,52.1-14.4c0,0-23.8,0-32.7-24.7c0,0,5.8,2.2,15.5-0.3c0,0-28.3-7.2-27.5-34.9c0,0,10.3,5.3,15.3,4.2
		C101.6,150.4,76.2,132.6,91.4,104.2z"/>
</g>
</svg>
