<?xml version="1.0" encoding="utf-8"?>
<!-- Generator: Adobe Illustrator 19.2.0, SVG Export Plug-In . SVG Version: 6.00 Build 0)  -->
<svg version="1.1" id="Layer_1" xmlns="http://www.w3.org/2000/svg" xmlns:xlink="http://www.w3.org/1999/xlink" x="0px" y="0px"
	 viewBox="0 0 659.2 624.8" style="enable-background:new 0 0 659.2 624.8;" xml:space="preserve">
<style type="text/css">
	.st0{fill:#FFFFFF;}
</style>
<g>
	<path class="st0" d="M64.9,69.4c0,0,105.2,136.1,268.6,133.7c0,0-23.5-115.1,91.6-153.5c0,0,71.8-26,131.2,34.7
		c0,0,38.3-3.2,85-30.7c0,0-3.2,33.9-56.3,71.6c0,0,32.6-1.3,74.2-19.8c0,0-31.3,46.7-65.2,67.8c0,0,23.5,201.8-171.5,335.6
		S18,504.6,18,504.6s99.5,20.7,194.9-53.9c0,0-89.2,0-122.4-92.3c0,0,21.8,8.3,58.1-1c0,0-105.8-27-102.7-130.7
		c0,0,38.4,19.7,57,15.6C103.1,242.2,8.1,175.5,64.9,69.4z"/>
</g>
</svg>
